<?xml version="1.0" encoding="utf-8"?>
<!-- Generator: Adobe Illustrator 23.1.0, SVG Export Plug-In . SVG Version: 6.00 Build 0)  -->
<svg version="1.1" id="Layer_1" xmlns="http://www.w3.org/2000/svg" xmlns:xlink="http://www.w3.org/1999/xlink" x="0px" y="0px"
	 viewBox="0 0 55.55 41" style="enable-background:new 0 0 55.55 41;" xml:space="preserve">
<style type="text/css">
	.st0{fill:none;}
	.st1{fill:#FFFFFF;}
</style>
<polygon class="st0" points="29.56,36.66 32.21,36.66 30.88,33.33 "/>
<path class="st0" d="M22.34,32.55h-2.61v4.16h2.61c0.93,0,1.69-1.22,1.69-2.13C24.03,33.65,23.27,32.55,22.34,32.55z"/>
<path class="st1" d="M26.96,6.12H22.7v8.57h4.27c2.19,0,3.73-2,3.73-4.15C30.69,8.37,29.16,6.12,26.96,6.12z"/>
<path class="st1" d="M43.82,6.12h-4.74v14.36h4.74c3.76,0,6.49-3.02,6.49-7.18C50.31,9.14,47.58,6.12,43.82,6.12z"/>
<path class="st1" d="M0.54,0.49v25.37h55.01V0.49H0.54z M10.54,23.48c-3.64,0-6.5-1.85-7.47-4.82l-0.17-0.53l2.5-1.45l0.25,0.87
	c0.59,2.06,2.33,3.2,4.9,3.2c2.48,0,3.97-1.11,3.97-2.98c0-1.63-1.39-2.35-4.31-3.27l-0.09-0.03c-3.1-1-6.3-2.02-6.3-5.71
	c0-3.27,2.67-5.64,6.34-5.64c3.01,0,5.49,1.6,6.63,4.29l0.25,0.58l-2.44,1.34l-0.3-0.73c-0.52-1.25-1.66-2.74-4.13-2.74
	c-2.12,0-3.49,1.12-3.49,2.85c0,1.6,1.24,2.17,4.06,3.09c3.12,1.02,6.65,2.17,6.65,5.94C17.36,21.18,14.62,23.48,10.54,23.48z
	 M26.96,17.41H22.7v5.79h-2.87V3.41h7.13c3.76,0,6.59,3.49,6.59,7.14C33.56,14.18,30.72,17.41,26.96,17.41z M43.82,23.2h-7.48V3.41
	h7.48c5.25,0,9.21,4.25,9.21,9.89C53.04,18.94,49.07,23.2,43.82,23.2z"/>
<path class="st1" d="M7.05,37.53c0,1.34-0.94,2.14-2.51,2.14c-1.56,0-2.5-0.8-2.5-2.14v-6.3h-1.5v6.3c0,2.08,1.61,3.47,4,3.47
	c2.4,0,4.01-1.4,4.01-3.47v-6.3h-1.5V37.53z"/>
<polygon class="st1" points="17.27,31.23 15.31,31.23 11.28,34.94 11.28,31.23 9.87,31.23 9.87,40.86 11.28,40.86 11.28,36.92 
	15.44,40.86 17.39,40.86 12.2,35.92 "/>
<rect x="36.55" y="31.23" class="st1" width="1.41" height="9.63"/>
<polygon class="st1" points="45.75,38.17 40.44,31.23 39.21,31.23 39.21,40.86 40.72,40.86 40.72,33.92 46.02,40.86 47.27,40.86 
	47.27,31.23 45.75,31.23 "/>
<polygon class="st1" points="50.15,36.67 54.7,36.67 54.7,35.34 50.15,35.34 50.15,32.55 55.31,32.55 55.31,31.23 48.56,31.23 
	48.56,40.86 55.39,40.86 55.39,39.54 50.15,39.54 "/>
<path class="st1" d="M25.59,40.24l-0.27-0.44l-1.75-2.02c1.12-0.47,1.87-2.01,1.87-3.21c0-1.65-1.39-3.35-3.1-3.35h-4.02v9.63h1.41
	v-2.83h2.38l2.23,2.83h1h0.63h0.02L25.59,40.24L25.59,40.24z M22.34,36.71h-2.61v-4.16h2.61c0.93,0,1.69,1.11,1.69,2.02
	C24.03,35.49,23.27,36.71,22.34,36.71z"/>
<path class="st1" d="M30.27,31.2c0,0-3.05,7.59-3.81,9.63h0.56h0.87l1.15-2.86l3.71-0.02l1.11,2.88h1.5L31.5,31.2H30.27z
	 M29.56,36.66l1.33-3.34l1.33,3.34H29.56z"/>
</svg>
